<?xml version="1.0" encoding="UTF-8"?>
<svg width="31px" height="36px" viewBox="0 0 31 36" version="1.1" xmlns="http://www.w3.org/2000/svg" xmlns:xlink="http://www.w3.org/1999/xlink">
    <title>合作协议</title>
    <g id="页面-1" stroke="none" stroke-width="1" fill="none" fill-rule="evenodd">
        <g id="合作伙伴-悬停" transform="translate(-945.000000, -1242.000000)" fill="#FFFFFF" fill-rule="nonzero">
            <g id="编组-8" transform="translate(0.000000, 1071.000000)">
                <g id="编组-33" transform="translate(395.000000, 141.000000)">
                    <g id="合作协议" transform="translate(550.000000, 30.000000)">
                        <path d="M17.5747963,4.25811925 L26.6838729,13.3671958 L26.3775121,13.719118 C25.3610919,14.8866982 24.345265,16.9534455 23.3955163,19.5832876 C22.7417771,21.3934833 22.1688464,23.347916 21.8680724,24.6028671 C21.7854896,24.9449958 21.4834974,25.1742187 21.1441406,25.1742187 C21.080415,25.1742187 21.0162687,25.167068 20.9587562,25.1527742 L20.8783445,25.1259771 C20.4989198,24.9836928 19.9720328,24.9117187 19.3066406,24.9117187 C17.5838385,24.9117187 15.0756121,25.3953283 12.0035536,26.2614629 C10.8992907,26.5727982 9.742096,26.928113 8.54797559,27.3191199 C7.25379576,27.7428905 5.96855002,28.1910244 4.7295654,28.6440207 L3.4970321,29.1018363 L1.84866355,29.7399085 L0.758310905,30.1794592 L1.30004012,28.8326553 L1.72208976,27.7420738 C1.79667658,27.5460951 1.87384526,27.3417156 1.95329149,27.1295162 C2.52086828,25.6135287 3.08846512,24.0106095 3.61800675,22.3935798 C4.00969509,21.1975046 4.36554886,20.0384254 4.67723513,18.9324235 C5.88446555,14.6486315 6.33614804,11.4831747 5.80858296,10.054496 C5.66164776,9.6381796 5.89182635,9.18172374 6.33580926,9.07373083 C7.59160268,8.77275555 9.5460046,8.2000801 11.3567225,7.54645108 C13.8494066,6.64664734 15.836161,5.68759572 17.0310986,4.72494556 L17.2228742,4.56448008 L17.5747963,4.25811925 Z M17.143,8.957 L17.0266691,9.02271187 C15.0287559,10.0991669 12.5480967,11.0452137 9.87832031,11.8565096 L9.613,11.935 L9.60285636,12.2589299 C9.47637419,15.1302997 8.58282122,18.9452735 7.15927901,23.319069 L6.925,24.025 L7.02816427,23.9915676 C11.7552819,22.4260893 15.8018161,21.4310084 18.6852253,21.3012016 L19.014,21.29 L19.0928978,21.0295097 C19.9009068,18.3714936 20.8452794,15.9005135 21.9200519,13.9123915 L21.984,13.798 L17.143,8.957 Z" id="形状结合"></path>
                        <path d="M28.8177734,32.5 L28.8177734,35.6 L0.973046875,35.6 L0.973046875,32.5 L28.8177734,32.5 Z M16.8385429,12.0133135 L19.0305741,14.2054052 L13.9823423,19.1402556 L11.7903112,16.9481639 L16.8385429,12.0133135 Z M21.4848887,0.292893219 L30.5677914,9.3757959 L28.3758048,11.567843 L19.2928941,2.48488781 L21.4848887,0.292893219 Z" id="形状结合"></path>
                    </g>
                </g>
            </g>
        </g>
    </g>
</svg>