<?xml version="1.0" encoding="UTF-8"?>
<svg width="41px" height="35px" viewBox="0 0 41 35" version="1.1" xmlns="http://www.w3.org/2000/svg" xmlns:xlink="http://www.w3.org/1999/xlink">
    <title>合作伙伴</title>
    <g id="页面-1" stroke="none" stroke-width="1" fill="none" fill-rule="evenodd">
        <g id="合作伙伴-悬停" transform="translate(-1187.000000, -1248.000000)" fill="#FFFFFF" fill-rule="nonzero">
            <g id="编组-8" transform="translate(0.000000, 1071.000000)">
                <g id="编组-33" transform="translate(395.000000, 141.000000)">
                    <g id="社交-合作" transform="translate(792.000000, 36.000000)">
                        <path d="M32.6097233,0.820810911 C36.1712316,1.75597317 38.9527443,4.53737678 39.8878022,8.09888197 C40.794627,11.552469 39.8287295,15.220272 37.3645075,17.7719863 L20.3263284,34.9640462 L3.69898132,18.1836326 C1.05614778,15.6193186 -0.000378787645,11.8299405 0.934708944,8.26871612 C1.86981991,4.70740321 4.65146433,1.92575879 8.21277724,0.990647821 C11.6661178,0.0838876649 15.3339675,1.04990479 17.88694,3.51502967 L20.326,5.951 L22.6947966,3.58548656 C25.2590905,0.942279151 29.0480886,-0.11428097 32.6097233,0.820810911 Z M15.3877528,6.11364584 C12.9187395,3.90423068 9.19800697,3.8768137 6.69832124,6.01255166 L6.69832124,6.01255166 L6.50342634,6.18577938 L6.31388303,6.36800567 L6.13163083,6.55749701 C3.82082968,9.05627157 3.79079971,12.9122124 6.05875267,15.4425053 L6.05875267,15.4425053 L6.23774339,15.6344833 L20.332,29.731 L21.859,28.264 L17.1703525,23.6823584 L19.7134531,21.1392578 L24.403,25.723 L25.71,24.376 L21.0108147,19.7841786 L23.5539035,17.2410898 L28.246,21.827 L29.671,20.384 L15.5851513,6.29756957 Z M34.3942005,5.93880226 C31.9303641,3.66288111 28.1553296,3.60620578 25.6261258,5.76855623 L25.6261258,5.76855623 L25.4290867,5.94387827 L25.2421707,6.12374863 L22.869,8.494 L32.212,17.837 L34.5866622,15.4669246 L34.7709508,15.2751819 C37.1067647,12.7465077 37.1049934,8.83671691 34.7658748,6.31006814 L34.7658748,6.31006814 L34.5859432,6.12309087 Z" id="合作伙伴"></path>
                    </g>
                </g>
            </g>
        </g>
    </g>
</svg>