<?xml version="1.0" encoding="UTF-8"?>
<svg width="28px" height="27px" viewBox="0 0 28 27" version="1.1" xmlns="http://www.w3.org/2000/svg" xmlns:xlink="http://www.w3.org/1999/xlink">
    <title>审核</title>
    <g id="页面-1" stroke="none" stroke-width="1" fill="none" fill-rule="evenodd">
        <g id="合作伙伴-悬停" transform="translate(-460.000000, -1248.000000)" fill="#FFFFFF" fill-rule="nonzero">
            <g id="编组-8" transform="translate(0.000000, 1071.000000)">
                <g id="编组-33" transform="translate(395.000000, 141.000000)">
                    <g id="审核" transform="translate(65.000000, 36.000000)">
                        <polygon id="路径" points="16.7671111 26.7555556 0.00181631006 26.7555556 0.00181631006 0 23.3128889 0 23.3128889 15.792 20.2017778 18.984 20.2017778 3.1111111 3.11292745 3.1111111 3.11292745 23.6444444 13.5253333 23.6444444"></polygon>
                        <path d="M5.76266667,6.48977777 L17.7626667,6.48977777 L17.7626667,9.6008889 L5.76266667,9.6008889 L5.76266667,6.48977777 Z M5.68177777,12.3635556 L17.6817778,12.3635556 L17.6817778,15.4746667 L5.68177777,15.4746667 L5.68177777,12.3635556 Z" id="形状"></path>
                        <polygon id="路径" points="18.8142222 26.6373333 14.4213333 22.2444444 16.6177778 20.048 18.8142222 22.2382222 25.0115556 16.0408889 27.2142222 18.2373333 18.8142222 26.6373333"></polygon>
                    </g>
                </g>
            </g>
        </g>
    </g>
</svg>