<?xml version="1.0" encoding="UTF-8"?>
<svg width="29px" height="32px" viewBox="0 0 29 32" version="1.1" xmlns="http://www.w3.org/2000/svg" xmlns:xlink="http://www.w3.org/1999/xlink">
    <title>授权证书</title>
    <g id="页面-1" stroke="none" stroke-width="1" fill="none" fill-rule="evenodd">
        <g id="合作伙伴-悬停" transform="translate(-1433.000000, -1247.000000)" fill="#FFFFFF" fill-rule="nonzero">
            <g id="编组-8" transform="translate(0.000000, 1071.000000)">
                <g id="编组-33" transform="translate(395.000000, 141.000000)">
                    <g id="授权信息" transform="translate(1038.000000, 35.000000)">
                        <path d="M-9.12939757e-14,0 L-9.12939757e-14,32 L12.8,32 L12.8,28.8 L3.2,28.8 L3.2,3.2 L25.6,3.2 L25.6,11.2 L28.8,11.2 L28.8,0 L-9.12939757e-14,0 Z M22.4,11.2 L22.4,9.6 L22.4,8 L6.4,8 L6.4,9.6 L6.4,11.2 L22.4,11.2 Z M6.4,16 L6.4,17.6 L6.4,19.2 L16,19.2 L16,17.6 L16,16 L6.4,16 Z M16,28.8 L16,30.4 L16,32 L28.8,32 L28.8,30.4 L28.8,28.8 L16,28.8 Z M27.2,19.2 L24,19.2 L24,14.4000001 L22.4,14.4000001 L20.8,14.4000001 L20.8,19.2 L17.6,19.2 L17.6,24.7997858 L16,24.7997858 L16,27.2 L28.8,27.2 L28.8,24.7997858 L27.2,24.7997858 L27.2,19.2 Z M24,23.030303 L20.8,23.030303 L20.8,21.430303 L24,21.430303 L24,23.030303 Z" id="授权证书"></path>
                    </g>
                </g>
            </g>
        </g>
    </g>
</svg>