<?xml version="1.0" encoding="UTF-8"?>
<svg width="58px" height="55px" viewBox="0 0 58 55" version="1.1" xmlns="http://www.w3.org/2000/svg" xmlns:xlink="http://www.w3.org/1999/xlink">
    <!-- Generator: Sketch 56.3 (81716) - https://sketch.com -->
    <title>btn36</title>
    <desc>Created with Sketch.</desc>
    <g id="页面-1" stroke="none" stroke-width="1" fill="none" fill-rule="evenodd">
        <g id="核心产品-合规" transform="translate(-1335.000000, -763.000000)">
            <g id="btn36" transform="translate(1335.000000, 763.000000)">
                <path d="M37.5,53.5 C48.545695,53.5 57.5,44.0979797 57.5,32.5 C57.5,20.9020203 48.545695,11.5 37.5,11.5 C26.454305,11.5 17.5,20.9020203 17.5,32.5 C17.5,44.0979797 26.454305,53.5 37.5,53.5 Z" id="椭圆形" fill="#ECF4FF"></path>
                <path d="M36.5,55 C37.1873927,55 37.8707354,54.9645005 38.5483637,54.8939794 L38.4448524,53.8993512 C37.8015936,53.9662953 37.152801,54 36.5,54 L36.5,55 Z M40.5818829,54.5736887 C41.2523095,54.4316132 41.9139278,54.2545903 42.5647782,54.0434904 L42.2562558,53.0922733 C41.6385815,53.2926127 41.0107432,53.4605974 40.3745688,53.5954143 L40.5818829,54.5736887 Z M44.5282721,53.2886699 C45.1520601,53.0099733 45.761884,52.6989388 46.3556682,52.3568797 L45.8565028,51.490373 C45.2922498,51.8154202 44.7128768,52.1109235 44.120353,52.3756518 L44.5282721,53.2886699 Z M48.0679335,51.2525024 C48.6218538,50.8547424 49.1569202,50.4286959 49.6711559,49.976062 L49.0104404,49.2254255 C48.5209379,49.6562892 48.0117114,50.0617606 47.4846555,50.4402298 L48.0679335,51.2525024 Z M51.185637,48.5011644 C51.6493866,48.0018722 52.089888,47.4793251 52.5054514,46.9354743 L51.7108663,46.3283215 C51.3147264,46.8467526 50.8948735,47.3448053 50.4529322,47.8206179 L51.185637,48.5011644 Z M53.6357371,45.3057913 C53.9978737,44.728757 54.3333556,44.133725 54.6408767,43.5227088 L53.7476297,43.0731425 C53.4542258,43.6561092 53.1341724,44.2237762 52.7887233,44.7742203 L53.6357371,45.3057913 Z M55.488186,41.6182528 C55.7350906,40.9836544 55.9529415,40.3364244 56.1408436,39.6784614 L55.1792859,39.4038584 C54.9998925,40.0320275 54.7919243,40.6498959 54.5562391,41.2556581 L55.488186,41.6182528 Z M56.6205713,37.6380968 C56.7448061,36.9698645 56.8388952,36.2940047 56.9023023,35.6121647 L55.9065984,35.5195701 C55.8460049,36.1711546 55.7561052,36.8169206 55.6374181,37.4553134 L56.6205713,37.6380968 Z M57,33.5032561 C57,32.8157936 56.9695138,32.1354166 56.9089282,31.4603523 L55.9129313,31.5497409 C55.9708502,32.1950916 56,32.8456426 56,33.5 L57,33.5032561 Z M56.6330771,29.4297522 C56.5100325,28.7563521 56.3564917,28.0911191 56.1731525,27.4358333 L55.2101348,27.7052714 C55.3852084,28.3310145 55.5318414,28.9663188 55.6493639,29.6094976 L56.6330771,29.4297522 Z M55.5168082,25.4557072 C55.2710542,24.8172568 54.9961466,24.1919953 54.6931733,23.5818968 L53.7975304,24.0266706 C54.0866489,24.6088699 54.349006,25.2055858 54.5835586,25.8149359 L55.5168082,25.4557072 Z M53.7022179,21.8008259 C53.3418672,21.2191716 52.9548657,20.6560377 52.5427102,20.1134317 L51.7463889,20.7183055 C52.1393902,21.235695 52.5084518,21.7727241 52.8521353,22.3274753 L53.7022179,21.8008259 Z M51.1896575,18.5031654 C50.7238331,18.0013589 50.2349765,17.5235011 49.7249371,17.0714409 L49.0616462,17.8198025 C49.5473606,18.2503029 50.0129917,18.7054578 50.456763,19.1835077 L51.1896575,18.5031654 Z M48.1663687,15.8186242 C47.6121406,15.415656 47.039267,15.0414992 46.4497969,14.6976829 L45.945971,15.5614882 C46.5063909,15.8883605 47.0511523,16.2441566 47.5782991,16.6274344 L48.1663687,15.8186242 Z M44.5964475,13.7419434 C43.9721199,13.4601861 43.334241,13.2111321 42.6848577,12.9958839 L42.370226,13.9450978 C42.9866631,14.1494254 43.5922636,14.3858766 44.1850998,14.6534219 L44.5964475,13.7419434 Z M40.6543212,12.4418056 C39.9866045,12.2976601 39.3106123,12.188332 38.6281804,12.1144919 L38.520607,13.1086891 C39.1682417,13.178764 39.8097063,13.2825079 40.4433039,13.419288 L40.6543212,12.4418056 Z M36.5072604,12 C36.5036616,12 36.5036616,12 36.5000627,12 C35.8146677,12 35.1333526,12.0352871 34.4577043,12.10539 L34.5609068,13.1000504 C35.2022869,13.033503 35.8491553,13 36.5000611,13 C36.5034782,13 36.5034782,13 36.5068967,13 L36.5072604,12 Z M32.4259537,12.4246522 C31.7552506,12.5664994 31.0933516,12.7433194 30.4422179,12.9542419 L30.7503842,13.9055744 C31.3683266,13.7054036 31.9964306,13.5376116 32.6328672,13.4030114 L32.4259537,12.4246522 Z M28.4789116,13.7081222 C27.8548002,13.986667 27.2446527,14.2975781 26.6505468,14.6395415 L27.1494043,15.5062255 C27.7139614,15.1812702 28.2936401,14.8858851 28.8864693,14.6213017 L28.4789116,13.7081222 Z M24.9384314,15.7429289 C24.3841451,16.1406312 23.8487183,16.5666505 23.3341305,17.0192864 L23.9945928,17.7701456 C24.4844291,17.3392814 24.9939969,16.9338371 25.5213994,16.555424 L24.9384314,15.7429289 Z M21.8197253,18.4930643 C21.3557899,18.9921845 20.9150951,19.5145696 20.4993314,20.0582688 L21.2936936,20.6657131 C21.6900235,20.1474278 22.1100598,19.6495306 22.5521772,19.1738831 L21.8197253,18.4930643 Z M19.3674432,21.6891426 C19.0051061,22.2661423 18.6694254,22.8611517 18.3617084,23.4721565 L19.2548369,23.921958 C19.5484275,23.3390028 19.8686702,22.771358 20.2143101,22.2209475 L19.3674432,21.6891426 Z M17.5147639,25.3741693 C17.2676266,26.0086706 17.0495389,26.6558137 16.8613967,27.3136994 L17.8228531,27.5886568 C18.0024756,26.9605623 18.2106695,26.3427777 18.4465766,25.737109 L17.5147639,25.3741693 Z M16.3809583,29.3536842 C16.2564724,30.0218748 16.1621315,30.6977024 16.0984726,31.3795191 L17.0941422,31.4724814 C17.1549762,30.8209208 17.2451162,30.1751872 17.364043,29.5368357 L16.3809583,29.3536842 Z M16,33.4880615 C16,33.4934412 16,33.4934412 16,33.4988213 C16,34.1811922 16.0302184,34.8587405 16.0903125,35.5311697 L17.0863429,35.4421557 C17.0288937,34.7993228 17,34.1514753 17,33.4988469 C17,33.493726 17,33.493726 17,33.4885798 L16,33.4880615 Z M16.365796,37.564076 C16.4886827,38.2376818 16.642082,38.9031235 16.8252964,39.5586201 L17.7883842,39.2894326 C17.6134296,38.6634875 17.4669315,38.0279831 17.3495596,37.3846069 L16.365796,37.564076 Z M17.4802705,41.5366995 C17.7256933,42.1749943 18.0002512,42.8001209 18.3028581,43.4101077 L19.1986828,42.9657001 C18.9099134,42.3836067 18.6478898,41.7870187 18.413653,41.1778162 L17.4802705,41.5366995 Z M19.2935808,45.19239 C19.653643,45.7740569 20.040351,46.3372216 20.4522098,46.8798779 L21.2487678,46.2753158 C20.8560486,45.7578774 20.4872662,45.2208178 20.1438573,44.6660537 L19.2935808,45.19239 Z M21.8049836,48.4910596 C22.2706244,48.9930424 22.7593056,49.4710862 23.2691782,49.9233414 L23.9327509,49.1752296 C23.4471938,48.7445422 22.9817285,48.2892089 22.5381309,47.8109898 L21.8049836,48.4910596 Z M24.8272949,51.176767 C25.3813174,51.5799085 25.9539911,51.9542528 26.5432679,52.2982702 L27.047437,51.4346652 C26.487199,51.1076006 25.9426259,50.7516251 25.4156728,50.3681809 L24.8272949,51.176767 Z M28.3981757,53.2556291 C29.0224031,53.5375641 29.6601887,53.7868021 30.3094853,54.00224 L30.6244047,53.0531216 C30.0080488,52.8486135 29.402536,52.6119872 28.8097937,52.3442726 L28.3981757,53.2556291 Z M32.3378531,54.5565033 C33.005537,54.7009278 33.6815068,54.8105347 34.363926,54.8846524 L34.4719013,53.8904988 C33.8242795,53.8201604 33.1828368,53.7161521 32.5492704,53.5791074 L32.3378531,54.5565033 Z M36.4844427,54.9999942 C36.49164,54.9999942 36.49164,54.9999942 36.4988381,54.9999942 L36.4988963,53.9999942 C36.4920588,53.9999942 36.4920588,53.9999942 36.485222,53.9999942 L36.4844427,54.9999942 Z" id="椭圆形" fill="#85B0EE" fill-rule="nonzero"></path>
                <g id="编组" fill-rule="nonzero">
                    <path d="M40.7290323,44.7574751 C40.0524731,44.7574751 39.5793549,44.6451045 39.3096774,44.4203635 C39.04,44.1956225 38.8980645,43.7754544 38.8980645,43.1696307 C38.8980645,42.9253469 38.9406452,42.5589213 39.0258065,42.0898964 C39.1015054,41.659957 39.196129,41.2397889 39.3096774,40.8196209 L40.6107527,36.2075435 C40.7432258,35.7531757 40.8331183,35.2841509 40.875699,34.8102404 C40.9230108,34.3021301 40.9466667,33.9454759 40.9466667,33.7500488 C40.9466667,32.7777995 40.6107527,31.9863201 39.9247312,31.3756107 C39.2387097,30.7649013 38.2735484,30.4619895 37.0197849,30.4619895 C36.324301,30.4619895 35.5909677,30.589017 34.8008602,30.8333008 C34.0107527,31.0775845 33.1969893,31.3853821 32.3501075,31.7273793 L32,33.1588822 C32.2507527,33.0611687 32.5535484,32.9634551 32.9131182,32.8510846 C33.2490322,32.7484854 33.5991398,32.694743 33.9539785,32.694743 C34.6447312,32.694743 35.1036559,32.8119992 35.3449462,33.0416259 C35.5862366,33.2712527 35.7092473,33.6914207 35.7092473,34.2777018 C35.7045161,34.6441274 35.6666667,35.0105531 35.5862366,35.3672073 C35.5058065,35.762947 35.4111828,36.1831151 35.2976344,36.6277115 L33.9965591,41.2642173 C33.8924731,41.6990425 33.8073118,42.1338675 33.7458064,42.5784639 C33.6937634,42.9546609 33.6653763,43.3357436 33.6653763,43.7168263 C33.6653763,44.6646473 34.0154839,45.4561267 34.7204301,46.0766074 C35.4253763,46.6970882 36.3952688,47 37.6584946,47 C38.4817204,47 39.2008602,46.8876294 39.8206452,46.6726598 C40.4451613,46.4576901 41.2731183,46.1450068 42.3187097,45.7297245 L42.664086,44.2933359 C42.3802151,44.4154778 42.0916129,44.5131913 41.7935484,44.5864765 C41.4481721,44.6939613 41.0886022,44.7525894 40.7290323,44.7574751 L40.7290323,44.7574751 Z M36.7926882,24.9265194 C36.7926882,25.7277702 37.0954838,26.4117647 37.7105376,26.978503 C38.3255914,27.5452414 39.0541936,27.8286105 39.9058065,27.8286105 C40.7574194,27.8286105 41.4860215,27.5403556 42.0963441,26.978503 C42.7019355,26.4166504 43,25.7277702 43,24.9265194 C43,24.1252687 42.6924731,23.4315028 42.0963441,22.8598788 C41.4860215,22.2882548 40.7526882,22 39.9058065,22 C39.0541936,22 38.316129,22.2882548 37.7105376,22.8598788 C37.1049463,23.4315028 36.7926882,24.1154973 36.7926882,24.9265194 L36.7926882,24.9265194 Z" id="形状" fill="#63F7DE"></path>
                    <path d="M45.6221223,10.8706249 L45.6075294,10.8365019 C45.6026651,10.8267524 45.5929366,10.817003 45.5880723,10.8072536 L45.4761938,10.5586429 C45.4713295,10.5635176 45.4567366,10.573267 45.4275509,10.5830165 C45.4275509,10.5830165 45.4226866,10.5830165 45.4226866,10.5878912 C41.2296736,4.65535729 34.5266898,0.62883882 26.8654421,0.0633713251 C27.599949,0.204738199 28.3198631,0.428975297 29.0154557,0.726333219 C28.3198631,0.428975297 27.599949,0.209612924 26.8703064,0.06824605 C26.2574066,0.0243735753 25.6347782,0 25.0072855,0 C24.3797928,0 23.7620287,0.0243735753 23.1442646,0.06824605 C22.2589649,0.233986499 21.3931223,0.521594971 20.5613297,0.916447292 C21.3931223,0.52159502 22.2541006,0.233986548 23.1394003,0.06824605 C10.214997,1.01881642 0,11.8309447 0,24.9975626 C0,38.7930194 11.207311,50 25.0024212,50 C28.266356,50 31.3843622,49.3711612 34.239697,48.2353515 C33.8651471,48.0501121 33.519783,47.8210003 33.2084688,47.5577654 C32.9457975,47.3286536 32.7074475,47.0800429 32.5080119,46.8216827 C32.4836905,46.7875597 32.4545047,46.7534366 32.4301833,46.7241884 C31.9340263,46.8899288 31.4330051,47.0410451 30.9271195,47.1775373 C31.433005,47.0410451 31.9340263,46.8899288 32.4301833,46.7193137 C32.0118549,46.1489714 31.7345907,45.5055084 31.6081193,44.8084235 C29.9834483,46.3634591 28.1447489,47.3676514 26.1893066,47.6552598 L26.1893066,47.6503851 C25.9947352,47.6796334 25.7952996,47.6991323 25.5958639,47.7137564 C25.7952996,47.6991323 25.9898709,47.6747587 26.1893066,47.6503851 L26.1893066,35.7999415 C27.1913491,35.8194404 28.1690703,35.8681876 29.1176057,35.9364336 L29.6769984,33.7184362 C28.5533487,33.635566 27.3907848,33.5770693 26.1893066,33.5575704 C25.4839853,33.5429462 24.7640713,33.5429462 24.0344286,33.5575704 L24.0344286,47.6796334 C19.6176585,47.1434143 15.7846025,42.9901531 13.5664889,36.9601248 C12.8806248,37.1014917 12.1850321,37.2623574 11.4894395,37.4378473 C12.8757605,41.2401287 14.8652528,44.4135712 17.2584806,46.6023204 C13.0460104,45.0814078 9.40266152,42.3564395 6.75162658,38.8417666 L6.74676229,38.8417666 C6.29438386,38.2421761 5.87119112,37.6230866 5.48204841,36.9796237 C5.02480569,37.1453641 4.55783439,37.3159794 4.09572739,37.5012187 L4.09572739,37.4963439 C4.55783439,37.3159793 5.02480569,37.1404894 5.48204841,36.974749 C3.51201329,33.7428098 2.32026361,29.9892756 2.16947078,25.9676319 L9.38806865,25.9676319 C9.47562577,29.3019401 9.97664704,32.4705079 10.8035754,35.3417178 C11.4991681,35.166228 12.1898964,35.0004875 12.8757605,34.8542459 C12.1023393,32.1487764 11.635368,29.1410744 11.5478109,25.9676319 L11.5429466,25.9676319 C11.5380823,25.6117773 11.533218,25.251048 11.533218,24.8903188 C11.533218,25.251048 11.5380823,25.6117773 11.5478109,25.9676319 L24.0344286,25.9676319 L24.0344286,33.5575704 C24.7640713,33.5429462 25.4839854,33.5429462 26.1893066,33.5526957 L26.1893066,25.9676319 L34.8185469,25.9676319 C34.769904,25.704397 34.7455827,25.4362874 34.7455827,25.1584284 C34.7455827,24.6904553 34.8136827,24.2371063 34.9498826,23.8130057 L26.1844423,23.8130057 L26.1844423,16.5837964 C30.406641,16.5252998 34.1618685,16.0183289 37.250689,15.3797406 C37.0658462,14.7070293 36.8615463,14.0489422 36.6426535,13.4103539 C36.8664106,14.0489422 37.0658463,14.7021546 37.250689,15.3797406 C37.9803316,15.2286243 38.6759243,15.0726333 39.3277384,14.9068928 C39.1234385,14.1610607 38.8996814,13.4444769 38.6516029,12.7376426 L38.6564672,12.7376426 C38.9045457,13.4396022 39.1283028,14.1659354 39.3326027,14.9117675 C41.5750378,14.3560495 43.3553658,13.7662084 44.556844,13.3031101 C46.4344578,16.4034318 47.5921574,19.9814761 47.8061859,23.8130057 L47.8159145,23.8130057 C47.8402359,24.2419811 47.8548288,24.6709564 47.8548288,25.1048065 C47.8499645,25.392415 47.8451002,25.6800234 47.8353716,25.9676319 L47.8305074,25.9676319 C47.8402359,25.6800234 47.8451002,25.3924149 47.8451002,25.1048065 C47.8451002,24.6709564 47.8305074,24.2419811 47.8061859,23.8130057 L44.3233584,23.8130057 C44.4644226,24.2419811 44.5325226,24.6904553 44.5325226,25.1584284 C44.5325226,25.4362874 44.5082012,25.704397 44.4595584,25.9676319 L47.8256431,25.9676319 C47.6797145,29.9259043 46.5220149,33.6209418 44.6152154,36.8138832 C43.9779942,36.5798966 43.170523,36.3069123 42.2171233,36.0193039 C42.1636161,36.3215365 42.0906519,36.6140197 42.0030948,36.9016281 L41.6236806,38.208053 C42.2657661,38.4030418 42.8300231,38.5882812 43.3164515,38.7540216 C43.7834228,38.1300575 44.2163441,37.4914692 44.6103512,36.8187579 C44.2114799,37.4865945 43.7785586,38.1349323 43.3115873,38.7588963 L43.3164515,38.7588963 C42.4943875,39.8557083 41.579902,40.8745247 40.5827237,41.8055962 C40.519488,42.0590816 40.4611167,42.3223165 40.4173381,42.5806766 L40.4124738,42.6050502 C40.3541024,42.9170322 40.329781,43.1168958 40.3200524,43.2338891 C40.3686953,43.2338891 40.4222024,43.2387638 40.4854381,43.2387638 C40.6897381,43.2338891 40.894038,43.2046408 41.0886094,43.1412694 L41.1372522,43.1266452 L41.185895,43.1168958 C41.4096521,43.0632738 41.6285448,42.9901531 41.8377091,42.9024081 L42.8738017,42.4734328 C43.76883,41.5569855 44.590894,40.5771668 45.3399938,39.5339768 C45.3545867,39.5388515 45.3643152,39.5437263 45.3643152,39.5486009 L45.447008,39.373111 C48.3120715,35.3027201 49.9999891,30.3451302 49.9999891,24.9975626 C50.0048424,19.757239 48.3899,14.8922687 45.6221223,10.8706249 Z M24.0392929,47.6796334 C24.3603357,47.7463001 24.6765142,47.7796334 25.0024212,47.7796334 C24.6765142,47.7796334 24.3554714,47.7463001 24.0392929,47.6796334 Z M26.1893066,48.8409743 L24.0344286,48.8409743 L26.1893066,48.8409743 Z M24.0344286,47.9331189 C23.5285431,47.91362 23.0275218,47.8746222 22.5313648,47.8210003 C23.0275218,47.8746222 23.528543,47.91362 24.0344286,47.9331189 Z M18.1681018,46.9094277 C17.8665162,46.8168081 17.5649306,46.7144389 17.2682092,46.6071951 L17.2633449,46.6023204 C17.5600663,46.7144389 17.8616519,46.816808 18.1681018,46.9094277 Z M44.5617083,13.3031101 C44.1677013,12.6498976 43.7396443,12.0210588 43.2824015,11.4117188 C42.1392947,11.8016964 40.5729952,12.2794189 38.6613315,12.7376426 C37.4063461,9.14984885 35.6211538,6.10802377 33.4711401,3.88515159 C31.5302907,3.10519645 29.4532413,2.58847615 27.2886348,2.37398846 C31.2335694,3.51954757 34.5899255,7.57043966 36.5745535,13.1861168 L36.5648249,13.1861168 L36.5648249,13.1909915 C33.6462544,13.7710831 30.1293768,14.2341815 26.1893066,14.3073023 L26.1893066,2.29111823 C25.7952996,2.27161933 25.4012925,2.26186993 25.0024212,2.26186993 C24.6765142,2.26186993 24.3554714,2.26674466 24.0344286,2.28136878 L24.0344286,14.3073023 C24.7640713,14.3219265 25.4791211,14.3219265 26.1844423,14.3073023 L26.1844423,14.312177 C25.479121,14.3268012 24.7640713,14.3268012 24.0344286,14.312177 L24.0344286,14.3073023 C20.7315796,14.2439309 17.1806521,13.8929511 13.4643389,13.1032465 C13.2211247,13.790582 12.9925033,14.5022911 12.7930677,15.2383738 C16.7574593,16.1158233 20.532144,16.5009262 24.0295644,16.5789217 L24.0295644,23.8130057 L11.5478109,23.8130057 C11.6305037,20.7565565 12.0682893,17.8609729 12.7930677,15.233499 C12.1072036,15.0823827 11.4164752,14.9166423 10.7257468,14.7362777 C9.94746135,17.5294921 9.48049005,20.5956907 9.39293294,23.8130057 L2.19379223,23.8130057 L2.19379223,23.8130057 L1.18688535,23.8130057 L1.18688535,23.808131 L2.19379223,23.808131 C2.41268501,19.9034805 3.61416322,16.2620649 5.55501265,13.1178707 C7.30615498,13.756459 9.02811163,14.2926782 10.7208825,14.7362777 C10.9251825,14.0099444 11.1489396,13.3031101 11.3872895,12.6157746 C9.88908993,12.2355464 8.37143324,11.7821975 6.83918369,11.2508531 C6.61056233,11.5530857 6.38680526,11.8553183 6.17277677,12.1673003 C6.38680526,11.8553183 6.61056238,11.5482109 6.8343194,11.2508531 C6.21169099,11.0314907 5.58419834,10.8023789 4.9518414,10.5586429 L4.19787732,12.6011504 L4.9518414,10.5537681 C5.58419834,10.7975041 6.21169104,11.0314907 6.8343194,11.2459783 C9.32483294,7.99454028 12.6665963,5.42556298 16.528838,3.88515159 C14.4031458,6.0836502 12.6325463,9.08647752 11.3872895,12.6206493 C11.1440753,13.3079848 10.9203182,14.0148192 10.7208825,14.7362777 C11.4164752,14.9166423 12.1072036,15.0823828 12.7882034,15.233499 C12.9876391,14.5022911 13.2113961,13.790582 13.4594746,13.1032465 C15.4489669,7.53144191 18.7907302,3.5146729 22.7162076,2.37398846 C22.7259362,2.36911373 22.7356647,2.36911373 22.740529,2.36911378 C23.1685861,2.32524131 23.5966431,2.295993 24.0344286,2.27649411 C24.3554714,2.26674466 24.6765142,2.25699521 25.0024212,2.25699521 C25.4012925,2.25699521 25.7904353,2.26674466 26.1844423,2.28624351 C26.5589922,2.30574241 26.9238135,2.33499071 27.2886348,2.37398846 C26.9238135,2.26674461 26.5638565,2.18874911 26.1893066,2.13025251 C26.5589922,2.18387443 26.9286778,2.26674466 27.2934991,2.37398846 C29.4532413,2.5884761 31.5254265,3.1051964 33.4662759,3.88027687 L33.4711401,3.88515159 C37.3966175,5.45481133 40.7821594,8.08228528 43.2824015,11.4117188 L43.2872658,11.4117188 C43.7396443,12.0161841 44.1677013,12.6498976 44.5617083,13.3031101 C45.6221223,12.8936336 46.2398864,12.5865262 46.3371721,12.4987813 C46.2544792,12.5816515 45.6367151,12.8887589 44.5617083,13.3031101 Z M46.3323078,37.5232232 C46.3031221,37.5032231 46.2447507,37.4698898 46.1620578,37.4232232 C46.2447507,37.4698898 46.3031221,37.5098899 46.3323078,37.5232232 Z" id="形状" fill="#437DFF"></path>
                    <path d="M39.2489899,20.6662913 C39.5025777,20.6662913 39.7512889,20.6858108 40,20.71997 C39.7854257,18.7387388 39.419674,16.8307057 38.932005,15.0397898 C38.2785286,15.2008258 37.581162,15.3618619 36.8496586,15.5131381 C37.3031907,17.1918168 37.6396823,18.9827327 37.8445033,20.8517267 C38.2931587,20.7297298 38.7613209,20.6662913 39.2489899,20.6662913 L39.2489899,20.6662913 Z M22.6975059,0.175675665 C23.3119688,0.131756749 23.936185,0.107357324 24.565278,0.107357373 C25.1943709,0.107357373 25.8137105,0.131756749 26.4330501,0.175675665 C25.8185872,0.0585585714 25.1943709,0 24.565278,0 C23.9361851,0 23.3119688,0.0585585714 22.6975059,0.175675665 Z M12.4613349,35.1644144 C12.4467048,35.1107357 12.427198,35.0570571 12.412568,35.0033784 C11.7249548,35.1546547 11.0324649,35.3156907 10.3350983,35.4913664 C8.58436679,35.9354354 6.80437513,36.4771021 5,37.131006 C5.39501182,37.7751502 5.81928381,38.3997748 6.27281596,39 C7.87724676,38.4436937 9.45729414,37.9752252 11.0178348,37.5848349 C11.7152014,37.4091592 12.412568,37.253003 13.1001812,37.1066066 C13.0367842,36.9358108 12.9782639,36.765015 12.914867,36.5942192 C12.9733872,36.765015 13.0367842,36.9358108 13.1001812,37.1066066 C16.791835,36.3355856 20.3176815,35.9988739 23.5948168,35.9451952 L23.5948168,33.7053303 C20.1128606,33.7736487 16.352933,34.1542793 12.412568,35.0033784 C12.427198,35.0570571 12.4467048,35.1107357 12.4613349,35.1644144 L12.4613349,35.1644144 Z" id="形状" fill="#437DFF"></path>
                </g>
            </g>
        </g>
    </g>
</svg>